<?xml version="1.0" encoding="UTF-8" standalone="no"?>
<!-- Created with Inkscape (http://www.inkscape.org/) -->

<svg
   width="39.010677mm"
   height="26.390711mm"
   viewBox="0 0 27.86477 18.850507"
   version="1.1"
   id="svg1"
   inkscape:version="1.4.2 (f4327f4, 2025-05-13)"
   sodipodi:docname="blog.svg"
   xmlns:inkscape="http://www.inkscape.org/namespaces/inkscape"
   xmlns:sodipodi="http://sodipodi.sourceforge.net/DTD/sodipodi-0.dtd"
   xmlns="http://www.w3.org/2000/svg"
   xmlns:svg="http://www.w3.org/2000/svg">
  <sodipodi:namedview
     id="namedview1"
     pagecolor="#ffffff"
     bordercolor="#000000"
     borderopacity="0.25"
     inkscape:showpageshadow="2"
     inkscape:pageopacity="0.0"
     inkscape:pagecheckerboard="0"
     inkscape:deskcolor="#d1d1d1"
     inkscape:document-units="mm"
     inkscape:zoom="1.4491738"
     inkscape:cx="-30.707152"
     inkscape:cy="140.07982"
     inkscape:window-width="1440"
     inkscape:window-height="830"
     inkscape:window-x="-6"
     inkscape:window-y="-6"
     inkscape:window-maximized="1"
     inkscape:current-layer="layer2"
     showgrid="false" />
  <defs
     id="defs1">
    <inkscape:path-effect
       effect="perspective-envelope"
       up_left_point="10.345482,3.2182424"
       up_right_point="15.572126,3.1503639"
       down_left_point="12.698603,11.929313"
       down_right_point="19.350695,10.390734"
       id="path-effect3"
       is_visible="true"
       lpeversion="1"
       deform_type="perspective"
       horizontal_mirror="false"
       vertical_mirror="false"
       overflow_perspective="false" />
    <inkscape:path-effect
       effect="perspective-envelope"
       up_left_point="10.345482,3.2182424"
       up_right_point="15.572126,3.1503639"
       down_left_point="12.698603,11.929313"
       down_right_point="19.350695,10.390734"
       id="path-effect2"
       is_visible="true"
       lpeversion="1"
       deform_type="perspective"
       horizontal_mirror="false"
       vertical_mirror="false"
       overflow_perspective="false" />
    <filter
       inkscape:menu-tooltip="In and out glow with a possible offset and colorizable flood"
       inkscape:menu="Shadows and Glows"
       inkscape:label="Cutout Glow"
       style="color-interpolation-filters:sRGB"
       id="filter8"
       x="-0.27399052"
       y="-0.40903546"
       width="1.6578584"
       height="1.9821049">
      <feOffset
         dy="3"
         dx="3"
         id="feOffset8" />
      <feGaussianBlur
         stdDeviation="3"
         result="blur"
         id="feGaussianBlur8" />
      <feFlood
         flood-color="rgb(0,0,0)"
         flood-opacity="1"
         result="flood"
         id="feFlood8" />
      <feComposite
         in="flood"
         in2="SourceGraphic"
         operator="in"
         result="composite"
         id="feComposite8" />
      <feBlend
         in="blur"
         in2="composite"
         mode="normal"
         id="feBlend8" />
    </filter>
  </defs>
  <g
     inkscape:label="Layer 1"
     inkscape:groupmode="layer"
     id="layer1"
     transform="translate(-1.1818883,-1.1818883)" />
  <text
     xml:space="preserve"
     style="font-style:normal;font-variant:normal;font-weight:normal;font-stretch:normal;font-size:9.07143px;font-family:'Segoe UI';-inkscape-font-specification:'Segoe UI';text-align:start;writing-mode:lr-tb;direction:ltr;text-anchor:start;white-space:pre;inline-size:0;opacity:0.4;fill:#ffffff;fill-opacity:1;stroke:#000000;stroke-width:1.20286;stroke-linecap:round;stroke-dasharray:none;stroke-opacity:1;paint-order:stroke markers fill"
     x="4.7115688"
     y="10.141848"
     id="text1"
     transform="matrix(0.64160035,0,0,0.64901955,-0.20125001,4.5537992)"><tspan
       id="tspan1"
       style="font-size:9.07143px;fill:#ffffff;fill-opacity:1;stroke:#000000;stroke-width:1.20286;stroke-dasharray:none;stroke-opacity:1"
       x="4.7115688"
       y="10.141848">Blog</tspan></text>
  <g
     inkscape:groupmode="layer"
     id="layer2"
     inkscape:label="Layer 2">
    <path
       style="opacity:0.4;fill:#ffffff;fill-opacity:1;stroke:#000000;stroke-width:0.202858;stroke-linecap:butt;stroke-linejoin:round;stroke-dasharray:none;stroke-opacity:1;paint-order:stroke markers fill"
       id="path2"
       d="m 17.397079,6.6642227 c 0.0046,-0.00664 0.0084,-0.013811 0.01366,-0.019908 0.05166,-0.059954 0.125165,-0.1080696 0.205461,-0.1161904 0.02712,-0.00274 0.05449,0.00136 0.08174,0.00204 0.08518,0.010855 0.164371,0.042906 0.243811,0.073321 0.03691,0.014132 0.07053,0.033447 0.111995,0.02509 0.02062,-0.00416 0.03867,-0.016584 0.058,-0.024876 0.08395,-0.051115 0.157436,-0.1177658 0.241742,-0.1683258 0.02875,-0.017243 0.05799,-0.034305 0.0893,-0.04627 0.08397,-0.03208 0.109979,-0.024762 0.198924,-0.026532 0.106376,0.00942 0.209567,0.03697 0.312926,0.062083 0.05753,0.013978 0.103375,0.027532 0.162753,0.030358 0.03281,0.00157 0.06569,-0.00136 0.09853,-0.00205 0.04797,-0.00398 0.09595,-0.00769 0.143894,-0.011938 0.182093,-0.01614 0.204358,-0.020202 0.391583,-0.035357 0.163923,-0.013269 0.32811,-0.022939 0.492223,-0.033448 0.180813,-0.00894 0.359253,-0.03996 0.538138,-0.065647 0.10871,-0.013093 0.217779,-0.023238 0.325534,-0.043304 0.10256,-0.019098 0.132275,-0.0281 0.233616,-0.053306 0.130919,-0.038062 0.06866,-0.019086 0.186898,-0.05651 0,0 -5.67e-4,-3.591e-4 -5.67e-4,-3.591e-4 v 0 c -0.118218,0.037435 -0.05597,0.018455 -0.186874,0.056523 -0.101392,0.025216 -0.13101,0.034197 -0.233623,0.053294 -0.107765,0.020055 -0.216843,0.030181 -0.325558,0.043286 -0.17887,0.025697 -0.357294,0.056719 -0.538091,0.065675 -0.164097,0.010529 -0.328265,0.020219 -0.492172,0.033486 -0.188161,0.015229 -0.208672,0.019139 -0.391627,0.035326 -0.04795,0.00424 -0.09595,0.00794 -0.143924,0.011912 -0.03285,6.803e-4 -0.06572,0.0036 -0.09854,0.00204 -0.05936,-0.00283 -0.10522,-0.016382 -0.162736,-0.030352 -0.103363,-0.025107 -0.206557,-0.052661 -0.312935,-0.062069 -0.08896,0.00178 -0.114958,-0.00554 -0.198942,0.026555 -0.03132,0.011969 -0.06055,0.029033 -0.08931,0.046278 -0.0843,0.050563 -0.157797,0.117208 -0.241766,0.1682951 -0.01933,0.00828 -0.03738,0.020697 -0.05799,0.024846 -0.04144,0.00834 -0.07507,-0.010971 -0.111965,-0.025093 -0.07944,-0.030411 -0.158638,-0.062452 -0.243821,-0.073301 -0.02725,-6.804e-4 -0.05464,-0.00478 -0.08176,-0.00203 -0.08031,0.00813 -0.153829,0.056263 -0.205523,0.1162091 -0.0053,0.0061 -0.0091,0.013271 -0.01367,0.019906 z" />
    <path
       style="opacity:0.4;fill:#ffffff;fill-opacity:1;stroke:#000000;stroke-width:0.202858;stroke-linecap:butt;stroke-linejoin:round;stroke-dasharray:none;stroke-opacity:1;paint-order:stroke markers fill"
       id="path3"
       d="m 17.893051,8.0161475 c 0.0046,-0.00664 0.0084,-0.013811 0.01366,-0.019908 0.05166,-0.059954 0.125165,-0.1080696 0.205461,-0.1161904 0.02712,-0.00274 0.05449,0.00136 0.08174,0.00204 0.08518,0.010855 0.164371,0.042906 0.243811,0.073321 0.03691,0.014132 0.07053,0.033447 0.111995,0.02509 0.02062,-0.00416 0.03867,-0.016584 0.058,-0.024876 0.08395,-0.051115 0.157436,-0.1177658 0.241742,-0.1683258 0.02875,-0.017243 0.05799,-0.034305 0.0893,-0.04627 0.08397,-0.03208 0.109979,-0.024762 0.198924,-0.026532 0.106376,0.00942 0.209567,0.03697 0.312926,0.062083 0.05753,0.013978 0.103375,0.027532 0.162753,0.030358 0.03281,0.00157 0.06569,-0.00136 0.09853,-0.00205 0.04797,-0.00398 0.09595,-0.00769 0.143894,-0.011938 0.182093,-0.01614 0.204358,-0.020202 0.391583,-0.035357 0.163923,-0.013269 0.32811,-0.022939 0.492223,-0.033448 0.180813,-0.00894 0.359253,-0.03996 0.538138,-0.065647 0.10871,-0.013093 0.217779,-0.023238 0.325534,-0.043304 0.10256,-0.019098 0.132275,-0.0281 0.233616,-0.053306 0.130919,-0.038062 0.06866,-0.019086 0.186898,-0.05651 0,0 -5.67e-4,-3.591e-4 -5.67e-4,-3.591e-4 v 0 c -0.118218,0.037435 -0.05597,0.018455 -0.186874,0.056523 -0.101392,0.025216 -0.13101,0.034197 -0.233623,0.053294 -0.107765,0.020055 -0.216843,0.030181 -0.325558,0.043286 -0.17887,0.025697 -0.357294,0.056719 -0.538091,0.065675 -0.164097,0.010529 -0.328265,0.020219 -0.492172,0.033486 -0.188161,0.015229 -0.208672,0.019139 -0.391627,0.035326 -0.04795,0.00424 -0.09595,0.00794 -0.143924,0.011912 -0.03285,6.803e-4 -0.06572,0.0036 -0.09854,0.00204 -0.05936,-0.00283 -0.10522,-0.016382 -0.162736,-0.030352 -0.103363,-0.025107 -0.206557,-0.052661 -0.312935,-0.062069 -0.08896,0.00178 -0.114958,-0.00554 -0.198942,0.026555 -0.03132,0.011969 -0.06055,0.029033 -0.08931,0.046278 -0.0843,0.050563 -0.157797,0.117208 -0.241766,0.1682951 -0.01933,0.00828 -0.03738,0.020697 -0.05799,0.024846 -0.04144,0.00834 -0.07507,-0.010971 -0.111965,-0.025093 -0.07944,-0.030411 -0.158638,-0.062452 -0.243821,-0.073301 -0.02725,-6.804e-4 -0.05464,-0.00478 -0.08176,-0.00203 -0.08031,0.00813 -0.153829,0.056263 -0.205523,0.1162091 -0.0053,0.0061 -0.0091,0.013271 -0.01367,0.019906 z" />
    <path
       style="opacity:0.4;fill:#ffffff;fill-opacity:1;stroke:#000000;stroke-width:0.202858;stroke-linecap:butt;stroke-linejoin:round;stroke-dasharray:none;stroke-opacity:1;paint-order:stroke markers fill"
       id="path4"
       d="m 18.405023,9.5360629 c 0.0046,-0.00664 0.0084,-0.013811 0.01366,-0.019908 0.05166,-0.059954 0.125165,-0.1080696 0.205461,-0.1161904 0.02712,-0.00274 0.05449,0.00136 0.08174,0.00204 0.08518,0.010855 0.164371,0.042906 0.243811,0.073321 0.03691,0.014132 0.07053,0.033447 0.111995,0.02509 0.02062,-0.00416 0.03867,-0.016584 0.058,-0.024876 0.08395,-0.051115 0.157436,-0.1177658 0.241742,-0.1683258 0.02875,-0.017243 0.05799,-0.034305 0.0893,-0.04627 0.08397,-0.03208 0.109979,-0.024762 0.198924,-0.026532 0.106376,0.00942 0.209567,0.03697 0.312926,0.062083 0.05753,0.013978 0.103375,0.027532 0.162753,0.030358 0.03281,0.00157 0.06569,-0.00136 0.09853,-0.00205 0.04797,-0.00398 0.09595,-0.00769 0.143894,-0.011938 0.182093,-0.01614 0.204358,-0.020202 0.391583,-0.035357 0.163923,-0.013269 0.32811,-0.022939 0.492223,-0.033448 0.180813,-0.00894 0.359253,-0.03996 0.538138,-0.065647 0.10871,-0.013093 0.217779,-0.023238 0.325534,-0.043304 0.10256,-0.019098 0.132275,-0.0281 0.233616,-0.053306 0.130919,-0.038062 0.06866,-0.019086 0.186898,-0.05651 0,0 -5.67e-4,-3.591e-4 -5.67e-4,-3.591e-4 v 0 c -0.118218,0.037435 -0.05597,0.018455 -0.186874,0.056523 -0.101392,0.025216 -0.13101,0.034197 -0.233623,0.053294 -0.107765,0.020055 -0.216843,0.030181 -0.325558,0.043286 -0.17887,0.025697 -0.357294,0.056719 -0.538091,0.065675 -0.164097,0.010529 -0.328265,0.020219 -0.492172,0.033486 -0.188161,0.015229 -0.208672,0.019139 -0.391627,0.035326 -0.04795,0.00424 -0.09595,0.00794 -0.143924,0.011912 -0.03285,6.803e-4 -0.06572,0.0036 -0.09854,0.00204 -0.05936,-0.00283 -0.10522,-0.016382 -0.162736,-0.030352 -0.103363,-0.025107 -0.206557,-0.052661 -0.312935,-0.062069 -0.08896,0.00178 -0.114958,-0.00554 -0.198942,0.026555 -0.03132,0.011969 -0.06055,0.029033 -0.08931,0.046278 -0.0843,0.050563 -0.157797,0.117208 -0.241766,0.1682951 -0.01933,0.00828 -0.03738,0.020697 -0.05799,0.024846 -0.04144,0.00834 -0.07507,-0.010971 -0.111965,-0.025093 -0.07944,-0.030411 -0.158638,-0.062452 -0.243821,-0.073301 -0.02725,-6.804e-4 -0.05464,-0.00478 -0.08176,-0.00203 -0.08031,0.00813 -0.153829,0.056263 -0.205523,0.1162091 -0.0053,0.0061 -0.0091,0.013271 -0.01367,0.019906 z" />
    <path
       style="opacity:0.4;fill:#ffffff;fill-opacity:1;stroke:#000000;stroke-width:0.202858;stroke-linecap:butt;stroke-linejoin:round;stroke-dasharray:none;stroke-opacity:1;paint-order:stroke markers fill"
       id="path5"
       d="m 18.964992,10.999981 c 0.0046,-0.0066 0.0084,-0.01381 0.01366,-0.01991 0.05166,-0.05995 0.125165,-0.10807 0.205461,-0.116191 0.02712,-0.0027 0.05449,0.0014 0.08174,0.002 0.08518,0.01085 0.164371,0.04291 0.243811,0.07332 0.03691,0.01413 0.07053,0.03345 0.111995,0.02509 0.02062,-0.0042 0.03867,-0.01658 0.058,-0.02488 0.08395,-0.05111 0.157436,-0.117765 0.241742,-0.168325 0.02875,-0.01724 0.05799,-0.0343 0.0893,-0.04627 0.08397,-0.03208 0.109979,-0.02476 0.198924,-0.02653 0.106376,0.0094 0.209567,0.03697 0.312926,0.06208 0.05753,0.01398 0.103375,0.02753 0.162753,0.03036 0.03281,0.0016 0.06569,-0.0014 0.09853,-0.0021 0.04797,-0.004 0.09595,-0.0077 0.143894,-0.01194 0.182093,-0.01614 0.204358,-0.0202 0.391583,-0.03536 0.163923,-0.01327 0.32811,-0.02294 0.492223,-0.03345 0.180813,-0.0089 0.359253,-0.03996 0.538138,-0.06565 0.10871,-0.01309 0.217779,-0.02324 0.325534,-0.0433 0.10256,-0.0191 0.132275,-0.0281 0.233616,-0.05331 0.130919,-0.03806 0.06866,-0.01909 0.186898,-0.05651 0,0 -5.67e-4,-3.59e-4 -5.67e-4,-3.59e-4 v 0 c -0.118218,0.03744 -0.05597,0.01846 -0.186874,0.05652 -0.101392,0.02522 -0.13101,0.0342 -0.233623,0.05329 -0.107765,0.02005 -0.216843,0.03018 -0.325558,0.04329 -0.17887,0.0257 -0.357294,0.05672 -0.538091,0.06567 -0.164097,0.01053 -0.328265,0.02022 -0.492172,0.03349 -0.188161,0.01523 -0.208672,0.01914 -0.391627,0.03533 -0.04795,0.0042 -0.09595,0.0079 -0.143924,0.01191 -0.03285,6.81e-4 -0.06572,0.0036 -0.09854,0.002 -0.05936,-0.0028 -0.10522,-0.01638 -0.162736,-0.03035 -0.103363,-0.02511 -0.206557,-0.05266 -0.312935,-0.06207 -0.08896,0.0018 -0.114958,-0.0055 -0.198942,0.02655 -0.03132,0.01197 -0.06055,0.02903 -0.08931,0.04628 -0.0843,0.05056 -0.157797,0.117208 -0.241766,0.168296 -0.01933,0.0083 -0.03738,0.0207 -0.05799,0.02485 -0.04144,0.0083 -0.07507,-0.01097 -0.111965,-0.02509 -0.07944,-0.03041 -0.158638,-0.06245 -0.243821,-0.0733 -0.02725,-6.81e-4 -0.05464,-0.0048 -0.08176,-0.002 -0.08031,0.0081 -0.153829,0.05626 -0.205523,0.116209 -0.0053,0.0061 -0.0091,0.01327 -0.01367,0.01991 z" />
    <path
       style="opacity:0.4;fill:#ffffff;fill-opacity:1;stroke:#282828;stroke-width:0.202857;stroke-linecap:butt;stroke-linejoin:round;stroke-dasharray:none;stroke-opacity:0.994126;paint-order:stroke markers fill"
       id="rect2"
       width="8.6658201"
       height="6.8104739"
       x="10.865884"
       y="3.3766255"
       ry="0"
       inkscape:path-effect="#path-effect2"
       sodipodi:type="rect"
       d="m 10.345482,3.2182424 5.226644,-0.067878 3.778569,7.2403701 -6.652092,1.538579 z"
       transform="translate(5.9996595,2.2198975)" />
    <path
       style="opacity:0.4;fill:#ffffff;fill-opacity:1;stroke:#282828;stroke-width:0.384391;stroke-linecap:butt;stroke-linejoin:round;stroke-dasharray:none;stroke-opacity:0.994126;paint-order:stroke markers fill"
       id="path1"
       width="8.6658201"
       height="6.8104739"
       x="10.865884"
       y="3.3766255"
       ry="0.59565133"
       inkscape:path-effect="#path-effect3"
       sodipodi:type="rect"
       d="m 10.751334,3.2129716 4.503133,-0.058482 c 0.176651,-0.00229 0.428152,0.2075969 0.568568,0.4766573 l 3.095471,5.9314415 c 0.236231,0.4526569 0.261268,0.8676789 0.04651,0.9173519 l -5.72549,1.324262 c -0.29785,0.06889 -0.668882,-0.348598 -0.822241,-0.916323 L 10.494585,3.7702086 c -0.08356,-0.3093388 0.03287,-0.5543295 0.256749,-0.557237 z"
       transform="matrix(1.1818337,0,0,1.1818337,3.1413941,0.54419779)" />
    <path
       id="rect7"
       style="opacity:0.4;fill:#000000;stroke:#000000;stroke-width:0.423158;paint-order:stroke markers fill;fill-opacity:1"
       d="m 17.843453,4.9150206 2.454915,-0.03458 0.564813,0.5746665 -3.400113,0.069161 z"
       sodipodi:nodetypes="ccccc" />
  </g>
</svg>
